Coordinates
version=1
nRows=19
nColumns=36
inDegrees=yes

Units are S.I. units (second, meters, Newtons, ...)
If the header above contains a line with 'inDegrees', this indicates whether rotational values are in degrees (yes) or radians (no).

endheader
time	pelvis_tilt	pelvis_list	pelvis_rotation	pelvis_tx	pelvis_ty	pelvis_tz	hip_flexion_r	hip_adduction_r	hip_rotation_r	knee_angle_r	knee_angle_r_beta	ankle_angle_r	subtalar_angle_r	mtp_angle_r	hip_flexion_l	hip_adduction_l	hip_rotation_l	knee_angle_l	knee_angle_l_beta	ankle_angle_l	subtalar_angle_l	mtp_angle_l	lumbar_extension	lumbar_bending	lumbar_rotation	arm_flex_r	arm_add_r	arm_rot_r	elbow_flex_r	pro_sup_r	arm_flex_l	arm_add_l	arm_rot_l	elbow_flex_l	pro_sup_l
      0.00000000	      7.65016220	      2.53097121	      9.60543423	     -0.86555499	      1.22471285	     -0.10744270	     -6.65135192	     -3.52296143	     -1.69949613	      2.48511851	      0.04337350	     12.51886271	      2.92755764	     -6.68457316	     -7.00894440	     -1.52387662	      1.65478095	      4.00402951	      0.06988350	     10.15889828	     -0.88682357	     -6.68457316	    -13.78243863	     -1.74384206	      1.63375288	      5.59573786	    -14.89720506	      3.21638594	     28.71662612	     94.95075293	      2.58317081	    -10.97508479	     -1.51641037	     26.42388300	     99.32885711
      0.01666670	      6.83980583	      1.42672956	      7.72166811	     -0.86341913	      1.22321865	     -0.10746596	     -4.63725925	     -2.51328366	     -0.46463671	      3.31806570	      0.05791117	     12.53058083	      2.83759383	     -6.74125082	     -5.78179994	     -2.32730726	      0.81550535	      4.10890396	      0.07171390	     10.91055162	      0.14572034	     -6.74125082	    -12.03499350	     -0.84241741	      3.97959819	      4.73373321	    -16.05557164	      5.43487268	     29.42186738	     95.97011914	      1.73878891	    -10.05084757	     -1.03321379	     27.43116404	    100.26486551
      0.03333330	      6.31664235	      1.18513024	      7.64104699	     -0.86387978	      1.22380516	     -0.10805739	     -3.88698094	     -2.41773562	     -0.47419085	      3.41253259	      0.05955993	     11.90725779	      2.71537308	     -6.90272792	     -5.05306661	     -2.61384384	      0.69153678	      3.55565366	      0.06205786	     10.62384118	      1.01999920	     -6.90272792	    -11.28180042	     -0.59724528	      4.16331454	      4.23650520	    -16.29125979	      7.91758773	     30.20660200	     93.83359193	      1.86071642	     -9.82989414	      0.66994560	     27.22708053	     98.37822599
      0.05000000	      5.65023663	      1.09265652	      7.39140950	     -0.86386892	      1.21923437	     -0.10831593	     -2.96394615	     -2.62439829	     -1.07068723	      3.69707482	      0.06452613	     12.17332883	      3.22436478	     -6.93393540	     -4.00710585	     -2.69760255	      0.87810809	      3.70081206	      0.06459136	     11.13876788	      1.32342233	     -6.93393540	    -10.21976540	     -0.53642114	      4.27865340	      4.22718047	    -16.48041746	     10.84263592	     31.24150739	     93.82773504	      1.57685556	     -9.75339477	      2.19108052	     27.98838494	     99.37802187
      0.06666670	      5.10925213	      1.04564650	      7.35152572	     -0.86420477	      1.21919383	     -0.10866829	     -2.20126549	     -2.73183123	     -1.92652174	      4.10693744	      0.07167958	     12.75845927	      4.20219275	     -6.97865464	     -3.24649170	     -2.73678989	      0.93022566	      3.99104404	      0.06965686	     11.54702586	      2.15625185	     -6.97865464	     -9.50826282	     -0.57255385	      4.13722775	      4.23315962	    -16.28330216	     11.95930977	     32.50039165	     93.13732393	      1.50738952	     -9.50149126	      2.83842045	     28.96519793	     99.23177236
      0.08333330	      4.60883784	      1.11848241	      7.32416498	     -0.86407566	      1.21516851	     -0.10831187	     -1.55078155	     -2.94537393	     -2.28911388	      4.58945774	      0.08010115	     13.27420434	      4.68117269	     -7.05331253	     -2.42034382	     -2.69137287	      1.02910833	      4.81496058	      0.08403692	     11.76215271	      2.50377935	     -7.05331253	     -8.83040416	     -0.77784449	      4.07153037	      4.45337830	    -16.34479923	     14.52453200	     34.12117427	     91.35265931	      1.57357492	     -9.55073268	      4.69160748	     29.57512713	     98.17192131
      0.10000000	      4.10811303	      1.20506598	      7.01909224	     -0.86489961	      1.21610582	     -0.10834930	     -0.86959856	     -3.14063740	     -2.59411127	      5.09676439	      0.08895532	     13.59077680	      4.88607982	     -7.15492624	     -1.60579642	     -2.60573812	      0.67133416	      5.79027510	      0.10105937	     12.16089864	      3.05996042	     -7.15492624	     -8.12240265	     -1.10395494	      4.19611277	      4.61070676	    -16.39820961	     16.89678114	     35.28538032	     88.51507327	      1.63988574	     -9.64085855	      6.44952455	     30.07112454	     97.03614374
      0.11666670	      3.74804899	      1.26870821	      6.84148105	     -0.86425687	      1.21177697	     -0.10815980	     -0.32978260	     -3.22541188	     -2.72912103	      5.56396230	      0.09710946	     13.84304998	      4.95126283	     -7.23894557	     -0.91639877	     -2.52388204	      0.53396594	      6.76888443	      0.11813932	     12.73510088	      3.50140410	     -7.23894557	     -7.66426345	     -1.35003923	      4.25424246	      4.69489271	    -16.50724071	     18.63878359	     37.07867976	     85.50253525	      1.49383438	     -9.78160618	      7.41998440	     30.91269290	     97.89597059
      0.13333330	      3.29417630	      1.22808576	      6.71495791	     -0.87226176	      1.20791185	     -0.10390686	      0.50359449	     -3.14470471	     -2.85905525	      6.07642616	      0.10605364	     13.97352746	      4.89445058	     -7.24958000	      0.22547147	     -2.61919464	      0.16603677	      8.09403394	      0.14126754	     13.43743790	      3.79449619	     -7.24958000	     -7.37079359	     -1.53641251	      4.29256705	      5.06086337	    -16.43964015	     19.28259953	     38.50583370	     85.23210380	      1.86597740	     -9.88629013	      7.95148092	     32.02403459	     97.75990194
      0.15000000	      3.05843895	      1.21811629	      6.69069146	     -0.87232081	      1.21594825	     -0.10393381	      1.00702544	     -3.06638409	     -2.68021560	      6.42812925	      0.11219202	     14.06569173	      4.73004402	     -7.26012812	      0.97564582	     -2.69596755	     -0.09681885	      9.05975534	      0.15812256	     13.77176871	      4.08638480	     -7.26012812	     -7.37451108	     -1.68123312	      4.34943953	      5.40747042	    -16.31485566	     20.16689623	     39.61341399	     84.86914808	      2.26794124	    -10.13323950	      8.84178122	     33.03880837	     97.84320973
      0.16666670	      2.91215285	      1.23537995	      6.54929927	     -0.87242305	      1.21248176	     -0.10420765	      1.33061899	     -3.03637062	     -2.55919502	      6.59784110	      0.11515405	     14.21141187	      4.71985867	     -7.30611506	      1.48497224	     -2.72931327	     -0.32010411	      9.83740983	      0.17169519	     14.13517717	      4.22291182	     -7.30611506	     -7.40476166	     -1.84795580	      4.34900469	      5.97976243	    -16.21598866	     21.30654967	     40.79271832	     82.47305135	      2.45216770	    -10.44302014	      9.97326694	     33.99992436	     95.13413516
      0.18333330	      2.68504031	      1.18581959	      6.50818255	     -0.87198775	      1.21213464	     -0.10418555	      1.72904436	     -2.92544118	     -2.46554434	      6.70612957	      0.11704404	     14.22944611	      4.58602076	     -7.31890365	      2.07142917	     -2.81013657	     -0.49284100	     10.48227424	      0.18295020	     14.51360857	      4.42360886	     -7.31890365	     -7.19042912	     -1.93418557	      4.33206095	      6.38042126	    -16.02540837	     22.02736996	     41.84279491	     81.33680332	      2.59206577	    -10.69656531	     10.69220506	     34.55996775	     94.42052983
      0.20000000	      2.37323950	      1.13444563	      6.47802630	     -0.86389330	      1.21234199	     -0.10897399	      1.97454518	     -2.87513130	     -2.37481787	      6.58765827	      0.11497633	     14.41217153	      4.60134713	     -7.32404211	      2.39207514	     -2.82796511	     -0.63973715	     10.63326562	      0.18558550	     14.91718001	      4.92488992	     -7.32404211	     -6.59600852	     -1.93304584	      4.15624226	      6.54889801	    -15.84951235	     22.72613859	     42.81866493	     81.24816209	      2.53337269	    -10.91030172	     11.48739956	     34.67189734	     94.72076243
      0.21666670	      2.20642136	      1.12528739	      6.51113723	     -0.86361535	      1.21219767	     -0.10906206	      2.03148780	     -2.86917247	     -2.18390360	      6.43040043	      0.11223166	     14.63686131	      4.65163956	     -7.39515101	      2.33365323	     -2.80542898	     -0.68745299	     10.36685622	      0.18093577	     15.06847029	      5.23460363	     -7.39515101	     -6.11644983	     -1.90333809	      4.35293885	      6.90537876	    -15.98610100	     24.85650996	     42.76444074	     77.74055380	      2.96845746	    -11.21745781	     14.53322983	     34.31986058	     91.34886859
      0.23333330	      2.19120150	      1.08929250	      6.60272889	     -0.86369240	      1.21243321	     -0.10934325	      1.84990008	     -2.79165920	     -2.02170072	      6.09828559	      0.10643516	     14.85583010	      4.58968332	     -7.40454090	      2.09465374	     -2.84909666	     -0.87204333	      9.94974173	      0.17365575	     15.06514217	      5.64751912	     -7.40454090	     -5.90845504	     -1.86633253	      4.22934266	      6.90249818	    -15.62710228	     24.80204268	     43.42606415	     76.69903528	      2.76573441	    -11.30203022	     14.73334987	     34.96473450	     90.15221455
      0.25000000	      2.02091671	      1.04510367	      6.65288653	     -0.86339940	      1.21198033	     -0.10950560	      1.88622998	     -2.77330295	     -1.92177769	      5.89082970	      0.10281437	     15.06601536	      4.76372801	     -7.44264579	      1.97513201	     -2.88477463	     -1.05252681	      9.53678139	      0.16644824	     15.06858871	      6.08007889	     -7.44264579	     -5.34760489	     -1.80402858	      4.57247029	      6.68905562	    -15.46072734	     24.64847522	     43.59790087	     77.55585787	      3.31008305	    -11.38128476	     16.63747180	     34.12117054	     92.31613837
      0.26666670	      1.95182399	      0.97681747	      6.68446581	     -0.86349964	      1.21207245	     -0.10985231	      1.86186784	     -2.70064170	     -1.82635195	      5.66143962	      0.09881076	     15.19536555	      4.87567430	     -7.45305629	      1.89159455	     -2.95105684	     -1.09080957	      9.30479792	      0.16239936	     15.12267606	      6.31502326	     -7.45305629	     -4.97954335	     -1.75241774	      4.33310633	      6.73252039	    -15.14052758	     25.30121114	     43.38102614	     76.39982660	      3.27677768	    -11.34102029	     17.22029661	     33.84346711	     90.54125321
      0.28333330	      2.07619153	      0.91399368	      6.68376994	     -0.86359516	      1.21223948	     -0.10993755	      1.70687853	     -2.62431110	     -1.58310589	      5.54466821	      0.09677272	     15.23379440	      4.79065815	     -7.45696770	      1.57434095	     -3.04482523	     -1.16071428	      9.04611402	      0.15788447	     15.06361063	      6.36490290	     -7.45696770	     -4.91912005	     -1.71498903	      4.15488774	      6.41531365	    -14.77739875	     25.35142254	     43.48099127	     75.59883243	      3.12652461	    -11.36857009	     17.50335203	     34.12233218	     89.53126872
      0.30000000	      1.97671773	      0.77785987	      6.70141064	     -0.86343596	      1.21197428	     -0.11040957	      1.81576321	     -2.47396878	     -1.42198003	      5.50854156	      0.09614219	     15.29427001	      4.74388922	     -7.46126908	      1.58638761	     -3.23762742	     -1.35297220	      8.93812374	      0.15599969	     14.86331665	      6.24921689	     -7.46126908	     -4.37560577	     -1.59941075	      4.11644799	      6.34447547	    -14.36371044	     25.75251951	     42.55006113	     75.84029749	      3.38993708	    -11.26195192	     18.70928290	     33.13271183	     89.85246918
